<svg xmlns="http://www.w3.org/2000/svg" xmlns:xlink="http://www.w3.org/1999/xlink" width="400" zoomAndPan="magnify" viewBox="0 0 300 269.999989" height="360" preserveAspectRatio="xMidYMid meet" version="1.0"><defs><g/><clipPath id="dca273456c"><path d="M 210 15.367188 L 253 15.367188 L 253 58 L 210 58 Z M 210 15.367188 " clip-rule="nonzero"/></clipPath><clipPath id="5be93ea6b2"><path d="M 53 15.367188 L 96 15.367188 L 96 58 L 53 58 Z M 53 15.367188 " clip-rule="nonzero"/></clipPath><clipPath id="1602d65bcf"><path d="M 53 122 L 96 122 L 96 164.617188 L 53 164.617188 Z M 53 122 " clip-rule="nonzero"/></clipPath><clipPath id="ea8204fcb2"><path d="M 210 122 L 253 122 L 253 164.617188 L 210 164.617188 Z M 210 122 " clip-rule="nonzero"/></clipPath><clipPath id="a08ee2af81"><rect x="0" width="225" y="0" height="22"/></clipPath></defs><g clip-path="url(#dca273456c)"><path fill="#0e457f" d="M 248.296875 57.210938 C 245.921875 57.210938 243.996094 55.289062 243.996094 52.917969 L 243.996094 23.953125 L 214.980469 23.953125 C 212.605469 23.953125 210.679688 22.03125 210.679688 19.660156 C 210.679688 17.289062 212.605469 15.367188 214.980469 15.367188 L 248.296875 15.367188 C 250.675781 15.367188 252.601562 17.289062 252.601562 19.660156 L 252.601562 52.917969 C 252.601562 55.289062 250.671875 57.210938 248.296875 57.210938 Z M 248.296875 57.210938 " fill-opacity="1" fill-rule="nonzero"/></g><g clip-path="url(#5be93ea6b2)"><path fill="#0e457f" d="M 57.761719 57.210938 C 55.382812 57.210938 53.460938 55.289062 53.460938 52.917969 L 53.460938 19.660156 C 53.460938 17.289062 55.382812 15.367188 57.761719 15.367188 L 91.078125 15.367188 C 93.453125 15.367188 95.378906 17.289062 95.378906 19.660156 C 95.378906 22.03125 93.453125 23.953125 91.078125 23.953125 L 62.0625 23.953125 L 62.0625 52.917969 C 62.0625 55.289062 60.136719 57.210938 57.761719 57.210938 Z M 57.761719 57.210938 " fill-opacity="1" fill-rule="nonzero"/></g><g clip-path="url(#1602d65bcf)"><path fill="#0e457f" d="M 91.078125 164.617188 L 57.761719 164.617188 C 55.382812 164.617188 53.460938 162.695312 53.460938 160.324219 L 53.460938 127.066406 C 53.460938 124.695312 55.382812 122.773438 57.761719 122.773438 C 60.136719 122.773438 62.0625 124.695312 62.0625 127.066406 L 62.0625 156.03125 L 91.078125 156.03125 C 93.453125 156.03125 95.378906 157.953125 95.378906 160.324219 C 95.378906 162.695312 93.453125 164.617188 91.078125 164.617188 Z M 91.078125 164.617188 " fill-opacity="1" fill-rule="nonzero"/></g><g clip-path="url(#ea8204fcb2)"><path fill="#0e457f" d="M 248.296875 164.617188 L 214.980469 164.617188 C 212.605469 164.617188 210.679688 162.695312 210.679688 160.324219 C 210.679688 157.953125 212.605469 156.03125 214.980469 156.03125 L 243.996094 156.03125 L 243.996094 127.066406 C 243.996094 124.695312 245.921875 122.773438 248.296875 122.773438 C 250.675781 122.773438 252.601562 124.695312 252.601562 127.066406 L 252.601562 160.324219 C 252.601562 162.695312 250.671875 164.617188 248.296875 164.617188 Z M 248.296875 164.617188 " fill-opacity="1" fill-rule="nonzero"/></g><path fill="#ffffff" d="M 153.03125 146.324219 C 129.140625 146.324219 104.484375 137.015625 81.730469 119.402344 C 64.664062 106.191406 54.738281 93.121094 54.324219 92.570312 C 53.242188 91.140625 53.167969 89.1875 54.136719 87.679688 C 54.492188 87.125 63.03125 73.929688 79.453125 60.636719 C 94.660156 48.328125 119.765625 33.660156 153.03125 33.660156 C 186.292969 33.660156 211.398438 48.328125 226.605469 60.636719 C 243.03125 73.929688 251.566406 87.125 251.921875 87.679688 C 252.890625 89.1875 252.816406 91.140625 251.734375 92.570312 C 251.320312 93.121094 241.394531 106.191406 224.328125 119.402344 C 201.574219 137.015625 176.917969 146.324219 153.03125 146.324219 Z M 153.03125 146.324219 " fill-opacity="1" fill-rule="nonzero"/><path fill="#0e457f" d="M 153.03125 37.953125 C 214.980469 37.953125 248.296875 89.992188 248.296875 89.992188 C 248.296875 89.992188 209.101562 142.03125 153.03125 142.03125 C 96.957031 142.03125 57.761719 89.992188 57.761719 89.992188 C 57.761719 89.992188 91.078125 37.953125 153.03125 37.953125 M 153.03125 29.363281 C 125.703125 29.363281 99.324219 39.027344 76.746094 57.300781 C 59.785156 71.027344 50.882812 84.789062 50.511719 85.367188 C 48.578125 88.386719 48.726562 92.289062 50.886719 95.152344 C 51.3125 95.722656 61.578125 109.238281 79.097656 122.796875 C 102.609375 141 128.175781 150.617188 153.03125 150.617188 C 177.882812 150.617188 203.449219 141 226.960938 122.796875 C 244.480469 109.238281 254.746094 95.722656 255.171875 95.152344 C 257.332031 92.289062 257.480469 88.386719 255.546875 85.367188 C 255.175781 84.789062 246.273438 71.027344 229.3125 57.300781 C 206.734375 39.027344 180.355469 29.363281 153.03125 29.363281 Z M 153.03125 29.363281 " fill-opacity="1" fill-rule="nonzero"/><path fill="#78bde9" d="M 153.03125 138.820312 C 126.058594 138.820312 104.117188 116.914062 104.117188 89.992188 C 104.117188 63.070312 126.058594 41.164062 153.03125 41.164062 C 180 41.164062 201.941406 63.070312 201.941406 89.992188 C 201.941406 116.914062 180 138.820312 153.03125 138.820312 Z M 153.03125 138.820312 " fill-opacity="1" fill-rule="nonzero"/><path fill="#0e457f" d="M 153.03125 45.457031 C 177.667969 45.457031 197.640625 65.398438 197.640625 89.992188 C 197.640625 114.589844 177.667969 134.523438 153.03125 134.523438 C 128.390625 134.523438 108.417969 114.585938 108.417969 89.992188 C 108.417969 65.398438 128.390625 45.457031 153.03125 45.457031 M 153.03125 36.871094 C 123.6875 36.871094 99.816406 60.699219 99.816406 89.992188 C 99.816406 119.28125 123.6875 143.113281 153.03125 143.113281 C 182.371094 143.113281 206.242188 119.28125 206.242188 89.992188 C 206.242188 60.699219 182.371094 36.871094 153.03125 36.871094 Z M 153.03125 36.871094 " fill-opacity="1" fill-rule="nonzero"/><path fill="#069bd8" d="M 153.03125 121.75 C 130.566406 121.75 111.984375 105.171875 108.882812 83.601562 C 108.582031 85.691406 108.417969 87.820312 108.417969 89.992188 C 108.417969 114.589844 128.390625 134.523438 153.03125 134.523438 C 177.667969 134.523438 197.640625 114.585938 197.640625 89.992188 C 197.640625 87.820312 197.476562 85.691406 197.175781 83.601562 C 194.074219 105.171875 175.496094 121.75 153.03125 121.75 Z M 153.03125 121.75 " fill-opacity="1" fill-rule="nonzero"/><path fill="#ffffff" d="M 153.03125 112.371094 C 140.667969 112.371094 130.613281 102.332031 130.613281 89.992188 C 130.613281 77.652344 140.667969 67.613281 153.03125 67.613281 C 165.390625 67.613281 175.445312 77.652344 175.445312 89.992188 C 175.445312 102.332031 165.390625 112.371094 153.03125 112.371094 Z M 153.03125 112.371094 " fill-opacity="1" fill-rule="nonzero"/><path fill="#0e457f" d="M 153.03125 71.910156 C 163.035156 71.910156 171.144531 80.003906 171.144531 89.992188 C 171.144531 99.980469 163.035156 108.078125 153.03125 108.078125 C 143.027344 108.078125 134.914062 99.980469 134.914062 89.992188 C 134.914062 80.003906 143.027344 71.910156 153.03125 71.910156 M 153.03125 63.320312 C 138.296875 63.320312 126.3125 75.285156 126.3125 89.992188 C 126.3125 104.699219 138.296875 116.664062 153.03125 116.664062 C 167.761719 116.664062 179.746094 104.699219 179.746094 89.992188 C 179.746094 75.285156 167.761719 63.320312 153.03125 63.320312 Z M 153.03125 63.320312 " fill-opacity="1" fill-rule="nonzero"/><g fill="#0e457f" fill-opacity="1"><g transform="translate(18.502898, 212.854026)"><g><path d="M 4.46875 -17.878906 L 4.46875 -11.917969 L 19.367188 -11.917969 L 19.367188 -8.9375 L 4.46875 -8.9375 L 4.46875 0 L 1.488281 0 L 1.488281 -20.859375 L 22.347656 -20.859375 L 22.347656 -17.878906 Z M 4.46875 -17.878906 "/></g></g></g><g fill="#0e457f" fill-opacity="1"><g transform="translate(48.860203, 212.854026)"><g><path d="M 16.386719 -17.878906 L 7.449219 -17.878906 C 6.636719 -17.878906 5.933594 -17.585938 5.347656 -17 C 4.761719 -16.414062 4.46875 -15.714844 4.46875 -14.898438 L 4.46875 -8.9375 L 19.367188 -8.9375 L 19.367188 -14.898438 C 19.367188 -15.714844 19.074219 -16.414062 18.488281 -17 C 17.902344 -17.585938 17.203125 -17.878906 16.386719 -17.878906 Z M 22.347656 -14.898438 L 22.347656 0 L 19.367188 0 L 19.367188 -5.960938 L 4.46875 -5.960938 L 4.46875 0 L 1.488281 0 L 1.488281 -14.898438 C 1.488281 -15.953125 1.753906 -16.929688 2.28125 -17.832031 C 2.804688 -18.738281 3.519531 -19.46875 4.425781 -20.023438 C 5.328125 -20.582031 6.335938 -20.859375 7.449219 -20.859375 L 16.386719 -20.859375 C 17.460938 -20.859375 18.441406 -20.589844 19.324219 -20.054688 C 20.207031 -19.515625 20.929688 -18.800781 21.484375 -17.910156 C 22.039062 -17.015625 22.328125 -16.011719 22.347656 -14.898438 Z M 22.347656 -14.898438 "/></g></g></g><g fill="#0e457f" fill-opacity="1"><g transform="translate(80.111189, 212.854026)"><g><path d="M 7.152344 -20.859375 L 16.089844 -20.859375 C 17.164062 -20.859375 18.140625 -20.589844 19.027344 -20.054688 C 19.910156 -19.515625 20.628906 -18.800781 21.1875 -17.910156 C 21.742188 -17.015625 22.03125 -16.011719 22.050781 -14.898438 L 19.070312 -14.898438 C 19.070312 -15.714844 18.777344 -16.414062 18.191406 -17 C 17.605469 -17.585938 16.90625 -17.878906 16.089844 -17.878906 L 7.152344 -17.878906 C 6.335938 -17.878906 5.636719 -17.585938 5.050781 -17 C 4.464844 -16.414062 4.171875 -15.714844 4.171875 -14.898438 L 4.171875 -5.960938 C 4.171875 -5.144531 4.464844 -4.445312 5.050781 -3.859375 C 5.636719 -3.273438 6.335938 -2.980469 7.152344 -2.980469 L 16.089844 -2.980469 C 16.90625 -2.980469 17.605469 -3.273438 18.191406 -3.859375 C 18.777344 -4.445312 19.070312 -5.144531 19.070312 -5.960938 L 22.050781 -5.960938 C 22.050781 -4.90625 21.785156 -3.929688 21.261719 -3.023438 C 20.734375 -2.121094 20.019531 -1.390625 19.113281 -0.835938 C 18.210938 -0.277344 17.203125 0 16.089844 0 L 7.152344 0 C 6.097656 0 5.117188 -0.261719 4.203125 -0.789062 C 3.289062 -1.316406 2.558594 -2.03125 2.011719 -2.933594 C 1.464844 -3.839844 1.191406 -4.847656 1.191406 -5.960938 L 1.191406 -14.898438 C 1.191406 -15.972656 1.457031 -16.953125 1.980469 -17.847656 C 2.507812 -18.742188 3.222656 -19.460938 4.128906 -20.007812 C 5.03125 -20.554688 6.039062 -20.839844 7.152344 -20.859375 Z M 7.152344 -20.859375 "/></g></g></g><g fill="#0e457f" fill-opacity="1"><g transform="translate(110.468494, 212.854026)"><g><path d="M 1.488281 -20.859375 L 4.46875 -20.859375 L 4.46875 0 L 1.488281 0 Z M 1.488281 -20.859375 "/></g></g></g><g fill="#0e457f" fill-opacity="1"><g transform="translate(123.845984, 212.854026)"><g><path d="M 4.46875 -20.859375 L 4.46875 -2.980469 L 22.347656 -2.980469 L 22.347656 0 L 1.488281 0 L 1.488281 -20.859375 Z M 4.46875 -20.859375 "/></g></g></g><g fill="#0e457f" fill-opacity="1"><g transform="translate(153.607509, 212.854026)"><g/></g></g><g fill="#0e457f" fill-opacity="1"><g transform="translate(172.942827, 212.854026)"><g><path d="M 16.386719 -17.878906 L 7.449219 -17.878906 C 6.636719 -17.878906 5.933594 -17.585938 5.347656 -17 C 4.761719 -16.414062 4.46875 -15.714844 4.46875 -14.898438 L 4.46875 -8.9375 L 19.367188 -8.9375 L 19.367188 -14.898438 C 19.367188 -15.714844 19.074219 -16.414062 18.488281 -17 C 17.902344 -17.585938 17.203125 -17.878906 16.386719 -17.878906 Z M 22.347656 -14.898438 L 22.347656 0 L 19.367188 0 L 19.367188 -5.960938 L 4.46875 -5.960938 L 4.46875 0 L 1.488281 0 L 1.488281 -14.898438 C 1.488281 -15.953125 1.753906 -16.929688 2.28125 -17.832031 C 2.804688 -18.738281 3.519531 -19.46875 4.425781 -20.023438 C 5.328125 -20.582031 6.335938 -20.859375 7.449219 -20.859375 L 16.386719 -20.859375 C 17.460938 -20.859375 18.441406 -20.589844 19.324219 -20.054688 C 20.207031 -19.515625 20.929688 -18.800781 21.484375 -17.910156 C 22.039062 -17.015625 22.328125 -16.011719 22.347656 -14.898438 Z M 22.347656 -14.898438 "/></g></g></g><g fill="#0e457f" fill-opacity="1"><g transform="translate(204.193812, 212.854026)"><g><path d="M 19.367188 -5.960938 L 19.367188 -20.859375 L 22.347656 -20.859375 L 22.347656 -5.960938 C 22.347656 -4.90625 22.085938 -3.929688 21.558594 -3.023438 C 21.03125 -2.121094 20.316406 -1.390625 19.414062 -0.835938 C 18.507812 -0.277344 17.5 0 16.386719 0 L 7.449219 0 C 6.398438 0 5.414062 -0.261719 4.5 -0.789062 C 3.585938 -1.316406 2.855469 -2.03125 2.308594 -2.933594 C 1.761719 -3.839844 1.488281 -4.847656 1.488281 -5.960938 L 1.488281 -20.859375 L 4.46875 -20.859375 L 4.46875 -5.960938 C 4.46875 -5.144531 4.761719 -4.445312 5.347656 -3.859375 C 5.933594 -3.273438 6.636719 -2.980469 7.449219 -2.980469 L 16.386719 -2.980469 C 17.203125 -2.980469 17.902344 -3.273438 18.488281 -3.859375 C 19.074219 -4.445312 19.367188 -5.144531 19.367188 -5.960938 Z M 19.367188 -5.960938 "/></g></g></g><g fill="#0e457f" fill-opacity="1"><g transform="translate(235.444798, 212.854026)"><g><path d="M 20.859375 -17.878906 L 11.917969 -17.878906 L 11.917969 0 L 8.9375 0 L 8.9375 -17.878906 L 0 -17.878906 L 0 -20.859375 L 20.859375 -20.859375 Z M 20.859375 -17.878906 "/></g></g></g><g fill="#0e457f" fill-opacity="1"><g transform="translate(263.716852, 212.854026)"><g><path d="M 4.46875 -20.859375 L 4.46875 -11.917969 L 19.367188 -11.917969 L 19.367188 -20.859375 L 22.347656 -20.859375 L 22.347656 0 L 19.367188 0 L 19.367188 -8.9375 L 4.46875 -8.9375 L 4.46875 0 L 1.488281 0 L 1.488281 -20.859375 Z M 4.46875 -20.859375 "/></g></g></g><g transform="matrix(1, 0, 0, 1, 45, 221)"><g clip-path="url(#a08ee2af81)"><g fill="#069bd8" fill-opacity="1"><g transform="translate(1.120371, 15.232612)"><g><path d="M 10.40625 -3.265625 L 10.328125 -0.5625 C 9.828125 -0.289062 9.273438 -0.0859375 8.671875 0.046875 C 8.078125 0.191406 7.441406 0.265625 6.765625 0.265625 C 5.859375 0.265625 5.023438 0.140625 4.265625 -0.109375 C 3.503906 -0.367188 2.84375 -0.75 2.28125 -1.25 C 1.726562 -1.757812 1.296875 -2.390625 0.984375 -3.140625 C 0.679688 -3.898438 0.53125 -4.785156 0.53125 -5.796875 C 0.53125 -6.796875 0.691406 -7.675781 1.015625 -8.4375 C 1.335938 -9.195312 1.78125 -9.832031 2.34375 -10.34375 C 2.914062 -10.851562 3.59375 -11.234375 4.375 -11.484375 C 5.164062 -11.742188 6.023438 -11.875 6.953125 -11.875 C 7.515625 -11.875 8.050781 -11.8125 8.5625 -11.6875 C 9.082031 -11.5625 9.613281 -11.34375 10.15625 -11.03125 L 10.21875 -8.34375 L 8.828125 -8.34375 L 8.46875 -10.578125 C 7.96875 -10.785156 7.46875 -10.890625 6.96875 -10.890625 C 6.445312 -10.890625 5.957031 -10.78125 5.5 -10.5625 C 5.039062 -10.34375 4.644531 -10.019531 4.3125 -9.59375 C 3.976562 -9.164062 3.71875 -8.628906 3.53125 -7.984375 C 3.34375 -7.347656 3.25 -6.617188 3.25 -5.796875 C 3.25 -4.960938 3.34375 -4.226562 3.53125 -3.59375 C 3.71875 -2.96875 3.976562 -2.4375 4.3125 -2 C 4.644531 -1.570312 5.039062 -1.25 5.5 -1.03125 C 5.957031 -0.8125 6.445312 -0.703125 6.96875 -0.703125 C 7.519531 -0.703125 8.078125 -0.8125 8.640625 -1.03125 L 8.984375 -3.265625 Z M 10.40625 -3.265625 "/></g></g></g><g fill="#069bd8" fill-opacity="1"><g transform="translate(20.861518, 15.232612)"><g><path d="M 3.28125 -5.796875 C 3.28125 -5.160156 3.332031 -4.535156 3.4375 -3.921875 C 3.539062 -3.316406 3.710938 -2.773438 3.953125 -2.296875 C 4.203125 -1.816406 4.515625 -1.429688 4.890625 -1.140625 C 5.265625 -0.847656 5.722656 -0.703125 6.265625 -0.703125 C 6.816406 -0.703125 7.28125 -0.847656 7.65625 -1.140625 C 8.03125 -1.429688 8.335938 -1.816406 8.578125 -2.296875 C 8.816406 -2.773438 8.988281 -3.316406 9.09375 -3.921875 C 9.207031 -4.535156 9.265625 -5.160156 9.265625 -5.796875 C 9.265625 -6.429688 9.207031 -7.054688 9.09375 -7.671875 C 8.988281 -8.285156 8.816406 -8.832031 8.578125 -9.3125 C 8.335938 -9.789062 8.03125 -10.171875 7.65625 -10.453125 C 7.28125 -10.742188 6.816406 -10.890625 6.265625 -10.890625 C 5.722656 -10.890625 5.265625 -10.742188 4.890625 -10.453125 C 4.515625 -10.171875 4.203125 -9.789062 3.953125 -9.3125 C 3.710938 -8.832031 3.539062 -8.285156 3.4375 -7.671875 C 3.332031 -7.054688 3.28125 -6.429688 3.28125 -5.796875 Z M 6.265625 -11.875 C 6.960938 -11.875 7.648438 -11.742188 8.328125 -11.484375 C 9.015625 -11.234375 9.628906 -10.859375 10.171875 -10.359375 C 10.710938 -9.859375 11.148438 -9.222656 11.484375 -8.453125 C 11.816406 -7.691406 11.984375 -6.804688 11.984375 -5.796875 C 11.984375 -4.773438 11.816406 -3.882812 11.484375 -3.125 C 11.148438 -2.375 10.710938 -1.75 10.171875 -1.25 C 9.640625 -0.75 9.03125 -0.367188 8.34375 -0.109375 C 7.65625 0.140625 6.960938 0.265625 6.265625 0.265625 C 5.578125 0.265625 4.890625 0.140625 4.203125 -0.109375 C 3.515625 -0.367188 2.898438 -0.75 2.359375 -1.25 C 1.828125 -1.75 1.394531 -2.375 1.0625 -3.125 C 0.726562 -3.882812 0.5625 -4.773438 0.5625 -5.796875 C 0.5625 -6.804688 0.726562 -7.691406 1.0625 -8.453125 C 1.394531 -9.222656 1.832031 -9.859375 2.375 -10.359375 C 2.914062 -10.859375 3.523438 -11.234375 4.203125 -11.484375 C 4.890625 -11.742188 5.578125 -11.875 6.265625 -11.875 Z M 6.265625 -11.875 "/></g></g></g><g fill="#069bd8" fill-opacity="1"><g transform="translate(42.126363, 15.232612)"><g><path d="M 5.375 -6.1875 C 5.820312 -6.1875 6.203125 -6.25 6.515625 -6.375 C 6.828125 -6.5 7.078125 -6.660156 7.265625 -6.859375 C 7.460938 -7.066406 7.601562 -7.3125 7.6875 -7.59375 C 7.78125 -7.882812 7.828125 -8.1875 7.828125 -8.5 C 7.828125 -9.207031 7.628906 -9.738281 7.234375 -10.09375 C 6.847656 -10.445312 6.226562 -10.625 5.375 -10.625 L 4.625 -10.625 C 4.601562 -9.894531 4.59375 -9.160156 4.59375 -8.421875 C 4.59375 -7.679688 4.59375 -6.9375 4.59375 -6.1875 Z M 11.765625 -0.890625 L 11.765625 0 C 11.410156 0.0703125 11.097656 0.117188 10.828125 0.140625 C 10.554688 0.160156 10.296875 0.171875 10.046875 0.171875 C 9.703125 0.171875 9.390625 0.148438 9.109375 0.109375 C 8.835938 0.0664062 8.59375 -0.00390625 8.375 -0.109375 C 8.164062 -0.210938 7.988281 -0.359375 7.84375 -0.546875 C 7.707031 -0.742188 7.609375 -1 7.546875 -1.3125 L 7.09375 -3.671875 C 6.96875 -4.242188 6.757812 -4.640625 6.46875 -4.859375 C 6.175781 -5.085938 5.734375 -5.203125 5.140625 -5.203125 L 4.59375 -5.203125 C 4.59375 -4.503906 4.59375 -3.8125 4.59375 -3.125 C 4.59375 -2.4375 4.601562 -1.742188 4.625 -1.046875 L 6.09375 -0.890625 L 6.09375 0 L 0.5625 0 L 0.5625 -0.890625 L 2 -1.046875 C 2.019531 -1.773438 2.03125 -2.507812 2.03125 -3.25 C 2.03125 -3.988281 2.03125 -4.738281 2.03125 -5.5 L 2.03125 -6.109375 C 2.03125 -6.859375 2.03125 -7.597656 2.03125 -8.328125 C 2.03125 -9.066406 2.019531 -9.8125 2 -10.5625 L 0.5625 -10.71875 L 0.5625 -11.609375 L 6.09375 -11.609375 C 7.425781 -11.609375 8.460938 -11.347656 9.203125 -10.828125 C 9.941406 -10.304688 10.3125 -9.59375 10.3125 -8.6875 C 10.3125 -8.394531 10.265625 -8.097656 10.171875 -7.796875 C 10.085938 -7.503906 9.941406 -7.21875 9.734375 -6.9375 C 9.523438 -6.65625 9.253906 -6.40625 8.921875 -6.1875 C 8.585938 -5.96875 8.171875 -5.796875 7.671875 -5.671875 C 8.234375 -5.503906 8.695312 -5.226562 9.0625 -4.84375 C 9.4375 -4.457031 9.6875 -3.945312 9.8125 -3.3125 L 10.296875 -1.046875 Z M 11.765625 -0.890625 "/></g></g></g><g fill="#069bd8" fill-opacity="1"><g transform="translate(62.735654, 15.232612)"><g><path d="M 4.65625 -10.625 C 4.632812 -9.882812 4.625 -9.140625 4.625 -8.390625 C 4.625 -7.640625 4.625 -6.878906 4.625 -6.109375 L 4.625 -5.46875 L 5.171875 -5.46875 C 6.117188 -5.46875 6.8125 -5.707031 7.25 -6.1875 C 7.6875 -6.675781 7.90625 -7.3125 7.90625 -8.09375 C 7.90625 -8.90625 7.6875 -9.53125 7.25 -9.96875 C 6.8125 -10.40625 6.128906 -10.625 5.203125 -10.625 Z M 4.625 -4.5 C 4.625 -3.945312 4.625 -3.378906 4.625 -2.796875 C 4.625 -2.222656 4.632812 -1.644531 4.65625 -1.0625 L 6.265625 -0.890625 L 6.265625 0 L 0.5625 0 L 0.5625 -0.890625 L 2 -1.046875 C 2.019531 -1.773438 2.03125 -2.507812 2.03125 -3.25 C 2.03125 -3.988281 2.03125 -4.738281 2.03125 -5.5 L 2.03125 -6.109375 C 2.03125 -6.859375 2.03125 -7.597656 2.03125 -8.328125 C 2.03125 -9.066406 2.019531 -9.8125 2 -10.5625 L 0.5625 -10.71875 L 0.5625 -11.609375 L 5.34375 -11.609375 C 6.238281 -11.609375 7 -11.523438 7.625 -11.359375 C 8.25 -11.191406 8.765625 -10.957031 9.171875 -10.65625 C 9.578125 -10.351562 9.875 -9.988281 10.0625 -9.5625 C 10.25 -9.144531 10.34375 -8.675781 10.34375 -8.15625 C 10.34375 -7.6875 10.265625 -7.234375 10.109375 -6.796875 C 9.953125 -6.359375 9.664062 -5.96875 9.25 -5.625 C 8.832031 -5.289062 8.269531 -5.019531 7.5625 -4.8125 C 6.863281 -4.601562 5.972656 -4.5 4.890625 -4.5 Z M 4.625 -4.5 "/></g></g></g><g fill="#069bd8" fill-opacity="1"><g transform="translate(82.157879, 15.232612)"><g><path d="M 3.28125 -5.796875 C 3.28125 -5.160156 3.332031 -4.535156 3.4375 -3.921875 C 3.539062 -3.316406 3.710938 -2.773438 3.953125 -2.296875 C 4.203125 -1.816406 4.515625 -1.429688 4.890625 -1.140625 C 5.265625 -0.847656 5.722656 -0.703125 6.265625 -0.703125 C 6.816406 -0.703125 7.28125 -0.847656 7.65625 -1.140625 C 8.03125 -1.429688 8.335938 -1.816406 8.578125 -2.296875 C 8.816406 -2.773438 8.988281 -3.316406 9.09375 -3.921875 C 9.207031 -4.535156 9.265625 -5.160156 9.265625 -5.796875 C 9.265625 -6.429688 9.207031 -7.054688 9.09375 -7.671875 C 8.988281 -8.285156 8.816406 -8.832031 8.578125 -9.3125 C 8.335938 -9.789062 8.03125 -10.171875 7.65625 -10.453125 C 7.28125 -10.742188 6.816406 -10.890625 6.265625 -10.890625 C 5.722656 -10.890625 5.265625 -10.742188 4.890625 -10.453125 C 4.515625 -10.171875 4.203125 -9.789062 3.953125 -9.3125 C 3.710938 -8.832031 3.539062 -8.285156 3.4375 -7.671875 C 3.332031 -7.054688 3.28125 -6.429688 3.28125 -5.796875 Z M 6.265625 -11.875 C 6.960938 -11.875 7.648438 -11.742188 8.328125 -11.484375 C 9.015625 -11.234375 9.628906 -10.859375 10.171875 -10.359375 C 10.710938 -9.859375 11.148438 -9.222656 11.484375 -8.453125 C 11.816406 -7.691406 11.984375 -6.804688 11.984375 -5.796875 C 11.984375 -4.773438 11.816406 -3.882812 11.484375 -3.125 C 11.148438 -2.375 10.710938 -1.75 10.171875 -1.25 C 9.640625 -0.75 9.03125 -0.367188 8.34375 -0.109375 C 7.65625 0.140625 6.960938 0.265625 6.265625 0.265625 C 5.578125 0.265625 4.890625 0.140625 4.203125 -0.109375 C 3.515625 -0.367188 2.898438 -0.75 2.359375 -1.25 C 1.828125 -1.75 1.394531 -2.375 1.0625 -3.125 C 0.726562 -3.882812 0.5625 -4.773438 0.5625 -5.796875 C 0.5625 -6.804688 0.726562 -7.691406 1.0625 -8.453125 C 1.394531 -9.222656 1.832031 -9.859375 2.375 -10.359375 C 2.914062 -10.859375 3.523438 -11.234375 4.203125 -11.484375 C 4.890625 -11.742188 5.578125 -11.875 6.265625 -11.875 Z M 6.265625 -11.875 "/></g></g></g><g fill="#069bd8" fill-opacity="1"><g transform="translate(103.422723, 15.232612)"><g><path d="M 5.375 -6.1875 C 5.820312 -6.1875 6.203125 -6.25 6.515625 -6.375 C 6.828125 -6.5 7.078125 -6.660156 7.265625 -6.859375 C 7.460938 -7.066406 7.601562 -7.3125 7.6875 -7.59375 C 7.78125 -7.882812 7.828125 -8.1875 7.828125 -8.5 C 7.828125 -9.207031 7.628906 -9.738281 7.234375 -10.09375 C 6.847656 -10.445312 6.226562 -10.625 5.375 -10.625 L 4.625 -10.625 C 4.601562 -9.894531 4.59375 -9.160156 4.59375 -8.421875 C 4.59375 -7.679688 4.59375 -6.9375 4.59375 -6.1875 Z M 11.765625 -0.890625 L 11.765625 0 C 11.410156 0.0703125 11.097656 0.117188 10.828125 0.140625 C 10.554688 0.160156 10.296875 0.171875 10.046875 0.171875 C 9.703125 0.171875 9.390625 0.148438 9.109375 0.109375 C 8.835938 0.0664062 8.59375 -0.00390625 8.375 -0.109375 C 8.164062 -0.210938 7.988281 -0.359375 7.84375 -0.546875 C 7.707031 -0.742188 7.609375 -1 7.546875 -1.3125 L 7.09375 -3.671875 C 6.96875 -4.242188 6.757812 -4.640625 6.46875 -4.859375 C 6.175781 -5.085938 5.734375 -5.203125 5.140625 -5.203125 L 4.59375 -5.203125 C 4.59375 -4.503906 4.59375 -3.8125 4.59375 -3.125 C 4.59375 -2.4375 4.601562 -1.742188 4.625 -1.046875 L 6.09375 -0.890625 L 6.09375 0 L 0.5625 0 L 0.5625 -0.890625 L 2 -1.046875 C 2.019531 -1.773438 2.03125 -2.507812 2.03125 -3.25 C 2.03125 -3.988281 2.03125 -4.738281 2.03125 -5.5 L 2.03125 -6.109375 C 2.03125 -6.859375 2.03125 -7.597656 2.03125 -8.328125 C 2.03125 -9.066406 2.019531 -9.8125 2 -10.5625 L 0.5625 -10.71875 L 0.5625 -11.609375 L 6.09375 -11.609375 C 7.425781 -11.609375 8.460938 -11.347656 9.203125 -10.828125 C 9.941406 -10.304688 10.3125 -9.59375 10.3125 -8.6875 C 10.3125 -8.394531 10.265625 -8.097656 10.171875 -7.796875 C 10.085938 -7.503906 9.941406 -7.21875 9.734375 -6.9375 C 9.523438 -6.65625 9.253906 -6.40625 8.921875 -6.1875 C 8.585938 -5.96875 8.171875 -5.796875 7.671875 -5.671875 C 8.234375 -5.503906 8.695312 -5.226562 9.0625 -4.84375 C 9.4375 -4.457031 9.6875 -3.945312 9.8125 -3.3125 L 10.296875 -1.046875 Z M 11.765625 -0.890625 "/></g></g></g><g fill="#069bd8" fill-opacity="1"><g transform="translate(124.032015, 15.232612)"><g><path d="M 6.828125 -4.59375 L 5.40625 -8.546875 L 3.9375 -4.59375 Z M 11.859375 -0.875 L 11.859375 0 L 6.640625 0 L 6.640625 -0.875 L 8.09375 -1.046875 L 7.171875 -3.609375 L 3.578125 -3.609375 L 2.640625 -1.09375 L 4.078125 -0.890625 L 4.078125 0 L 0.09375 0 L 0.09375 -0.890625 L 1.671875 -1.109375 L 5.59375 -11.609375 L 6.65625 -11.609375 L 10.6875 -1.015625 Z M 11.859375 -0.875 "/></g></g></g><g fill="#069bd8" fill-opacity="1"><g transform="translate(144.676751, 15.232612)"><g><path d="M 7.03125 -10.625 C 7.007812 -9.882812 7 -9.140625 7 -8.390625 C 7 -7.640625 7 -6.878906 7 -6.109375 L 7 -5.5 C 7 -4.75 7 -4.003906 7 -3.265625 C 7 -2.535156 7.007812 -1.800781 7.03125 -1.0625 L 8.640625 -0.890625 L 8.640625 0 L 2.765625 0 L 2.765625 -0.890625 L 4.375 -1.0625 C 4.394531 -1.789062 4.40625 -2.523438 4.40625 -3.265625 C 4.40625 -4.003906 4.40625 -4.75 4.40625 -5.5 L 4.40625 -6.109375 C 4.40625 -6.867188 4.40625 -7.625 4.40625 -8.375 C 4.40625 -9.125 4.394531 -9.875 4.375 -10.625 L 2.03125 -10.625 L 1.6875 -8.34375 L 0.359375 -8.34375 L 0.4375 -11.609375 L 10.96875 -11.609375 L 11.0625 -8.34375 L 9.734375 -8.34375 L 9.375 -10.625 Z M 7.03125 -10.625 "/></g></g></g><g fill="#069bd8" fill-opacity="1"><g transform="translate(164.80768, 15.232612)"><g><path d="M 4.65625 -10.5625 C 4.632812 -9.832031 4.625 -9.097656 4.625 -8.359375 C 4.625 -7.617188 4.625 -6.867188 4.625 -6.109375 L 4.625 -5.5 C 4.625 -4.75 4.625 -4.003906 4.625 -3.265625 C 4.625 -2.523438 4.632812 -1.785156 4.65625 -1.046875 L 6.09375 -0.890625 L 6.09375 0 L 0.5625 0 L 0.5625 -0.890625 L 2 -1.046875 C 2.019531 -1.773438 2.03125 -2.507812 2.03125 -3.25 C 2.03125 -3.988281 2.03125 -4.738281 2.03125 -5.5 L 2.03125 -6.109375 C 2.03125 -6.859375 2.03125 -7.597656 2.03125 -8.328125 C 2.03125 -9.066406 2.019531 -9.8125 2 -10.5625 L 0.5625 -10.71875 L 0.5625 -11.609375 L 6.09375 -11.609375 L 6.09375 -10.71875 Z M 4.65625 -10.5625 "/></g></g></g><g fill="#069bd8" fill-opacity="1"><g transform="translate(180.19034, 15.232612)"><g><path d="M 3.28125 -5.796875 C 3.28125 -5.160156 3.332031 -4.535156 3.4375 -3.921875 C 3.539062 -3.316406 3.710938 -2.773438 3.953125 -2.296875 C 4.203125 -1.816406 4.515625 -1.429688 4.890625 -1.140625 C 5.265625 -0.847656 5.722656 -0.703125 6.265625 -0.703125 C 6.816406 -0.703125 7.28125 -0.847656 7.65625 -1.140625 C 8.03125 -1.429688 8.335938 -1.816406 8.578125 -2.296875 C 8.816406 -2.773438 8.988281 -3.316406 9.09375 -3.921875 C 9.207031 -4.535156 9.265625 -5.160156 9.265625 -5.796875 C 9.265625 -6.429688 9.207031 -7.054688 9.09375 -7.671875 C 8.988281 -8.285156 8.816406 -8.832031 8.578125 -9.3125 C 8.335938 -9.789062 8.03125 -10.171875 7.65625 -10.453125 C 7.28125 -10.742188 6.816406 -10.890625 6.265625 -10.890625 C 5.722656 -10.890625 5.265625 -10.742188 4.890625 -10.453125 C 4.515625 -10.171875 4.203125 -9.789062 3.953125 -9.3125 C 3.710938 -8.832031 3.539062 -8.285156 3.4375 -7.671875 C 3.332031 -7.054688 3.28125 -6.429688 3.28125 -5.796875 Z M 6.265625 -11.875 C 6.960938 -11.875 7.648438 -11.742188 8.328125 -11.484375 C 9.015625 -11.234375 9.628906 -10.859375 10.171875 -10.359375 C 10.710938 -9.859375 11.148438 -9.222656 11.484375 -8.453125 C 11.816406 -7.691406 11.984375 -6.804688 11.984375 -5.796875 C 11.984375 -4.773438 11.816406 -3.882812 11.484375 -3.125 C 11.148438 -2.375 10.710938 -1.75 10.171875 -1.25 C 9.640625 -0.75 9.03125 -0.367188 8.34375 -0.109375 C 7.65625 0.140625 6.960938 0.265625 6.265625 0.265625 C 5.578125 0.265625 4.890625 0.140625 4.203125 -0.109375 C 3.515625 -0.367188 2.898438 -0.75 2.359375 -1.25 C 1.828125 -1.75 1.394531 -2.375 1.0625 -3.125 C 0.726562 -3.882812 0.5625 -4.773438 0.5625 -5.796875 C 0.5625 -6.804688 0.726562 -7.691406 1.0625 -8.453125 C 1.394531 -9.222656 1.832031 -9.859375 2.375 -10.359375 C 2.914062 -10.859375 3.523438 -11.234375 4.203125 -11.484375 C 4.890625 -11.742188 5.578125 -11.875 6.265625 -11.875 Z M 6.265625 -11.875 "/></g></g></g><g fill="#069bd8" fill-opacity="1"><g transform="translate(201.455185, 15.232612)"><g><path d="M 13.015625 -10.71875 L 11.375 -10.484375 L 11.375 0.171875 L 10.484375 0.171875 L 3.15625 -8.953125 L 3.15625 -1.109375 L 5.171875 -0.890625 L 5.171875 0 L 0.453125 0 L 0.453125 -0.890625 L 2.109375 -1.109375 L 2.109375 -10.265625 L 1.84375 -10.578125 L 0.640625 -10.703125 L 0.640625 -11.609375 L 4.125 -11.609375 L 10.34375 -3.75 L 10.34375 -10.484375 L 8.3125 -10.71875 L 8.3125 -11.609375 L 13.015625 -11.609375 Z M 13.015625 -10.71875 "/></g></g></g></g></g></svg>